# xmcd
#
# Track frame offsets:
#	150
#	12157
#	31860
#	49710
#	71377
#	83780
#	97052
#	111945
#	122870
#	134375
#	150500
#	166707
#	177752
#	197807
#
# Disc length: 2885 seconds
#
# Revision: 1
# Processed by: cddbd v1.5.2PL0 Copyright (c) Steve Scherf et al.
# Submitted via: audiograbber 1.83.01
#
DISCID=ae0b430e
DTITLE=Stony Creek Band - Standing On The Rock
DYEAR=1996
DGENRE=Country
TTITLE0=Sitting On The Top Of The World
TTITLE1=In The Pines
TTITLE2=Standing On The Rock
TTITLE3=Heavens's Gate
TTITLE4=Fox On The Run
TTITLE5=Keep A Light In Your Window Tonight
TTITLE6=Lord Of The Dance
TTITLE7=Glenside Polka - Maggie In The Woods
TTITLE8=The Bonnie Ship The "Diamond"
TTITLE9=Oh The Britches Full Of Stitches
TTITLE10=When You're Smiling
TTITLE11=Jolie Blonde
TTITLE12=Dixie
TTITLE13=Ashokan Farewell
EXTD=
EXTT0=
EXTT1=
EXTT2=
EXTT3=
EXTT4=
EXTT5=
EXTT6=
EXTT7=
EXTT8=
EXTT9=
EXTT10=
EXTT11=
EXTT12=
EXTT13=
PLAYORDER=
